<?xml version="1.0" encoding="UTF-8"?>
<svg id="a" data-name="Capa 1" xmlns="http://www.w3.org/2000/svg" viewBox="0 0 303.28 87.9">
  <defs>
    <style>
      .b {
        fill: #0071bc;
      }

      .c {
        fill: #fbb03b;
      }
    </style>
  </defs>
  <g>
    <path class="b" d="M14.01,9.55h28.76c2.81,0,5.2.99,7.17,2.96,1.97,1.97,2.96,4.34,2.96,7.11v38.9h-10.68v-15.78H14.48v15.78H3.94V19.62c0-2.81.97-5.19,2.92-7.14,1.95-1.95,4.33-2.92,7.14-2.92ZM14.48,32.13h27.74v-11.97H14.48v11.97Z"/>
    <path d="M97.99,9.55h10.95v3.6l-17.54,20.88,17.54,20.81v3.67h-10.95l-13.6-16.05-13.46,16.05h-10.95v-3.6l17.48-20.88-17.48-20.88v-3.6h10.95l13.6,16.12c1.31-1.68,3.58-4.41,6.8-8.19,3.22-3.78,5.44-6.43,6.66-7.92Z"/>
    <path class="b" d="M115.94,58.51V9.55h10.61v48.96h-10.61Z"/>
    <path d="M140.76,9.55h28.83c2.76,0,5.13.99,7.11,2.96,1.97,1.97,2.96,4.34,2.96,7.11v28.83c0,2.77-.99,5.13-2.96,7.11-1.97,1.97-4.34,2.96-7.11,2.96h-28.83c-2.81,0-5.19-.97-7.14-2.92-1.95-1.95-2.92-4.33-2.92-7.14v-28.83c0-2.81.97-5.19,2.92-7.14,1.95-1.95,4.33-2.92,7.14-2.92ZM141.23,20.16v27.74h27.74v-27.74h-27.74Z"/>
    <path class="b" d="M214.61,29.34l16.52-19.79h10.95v48.96h-10.61V25.67l-16.86,20.13-16.93-20.06v32.78h-10.54V9.55h10.88l16.59,19.79Z"/>
    <path d="M260.44,9.55h28.76c2.81,0,5.2.99,7.17,2.96,1.97,1.97,2.96,4.34,2.96,7.11v38.9h-10.68v-15.78h-27.74v15.78h-10.54V19.62c0-2.81.97-5.19,2.92-7.14,1.95-1.95,4.33-2.92,7.14-2.92ZM260.91,32.13h27.74v-11.97h-27.74v11.97Z"/>
  </g>
  <g>
    <path d="M205.45,67.06c-10.56,0-15.84-5.84-15.84-17.51,0-5.54,1.33-9.82,4-12.86,2.66-3.04,6.42-4.56,11.27-4.56,2.34,0,4.39.37,6.12,1.11,1.74.74,3.01,1.8,3.8,3.17l-3.54,3.52c-.72-1.08-1.63-1.92-2.74-2.51-1.11-.59-2.31-.88-3.6-.88-3.08,0-5.55,1.11-7.41,3.33-1.86,2.22-2.79,5.37-2.79,9.45,0,8.9,3.84,13.35,11.53,13.35,2.31,0,4.59-.48,6.84-1.44l1.1,4.21c-2.78,1.08-5.69,1.63-8.76,1.63Z"/>
    <path d="M230.62,67.06c-8.36,0-12.54-5.74-12.54-17.23s4.18-17.7,12.54-17.7,12.54,5.9,12.54,17.7-4.18,17.23-12.54,17.23ZM230.62,62.65c5.01,0,7.51-4.27,7.51-12.82s-2.5-13.3-7.51-13.3-7.51,4.43-7.51,13.3,2.5,12.82,7.51,12.82Z"/>
    <path d="M248.32,66.58v-33.97h4.79v33.97h-4.79ZM252.77,53.66v-4.55h7.23c1.9,0,3.38-.5,4.44-1.51,1.06-1.01,1.59-2.42,1.59-4.24,0-1.99-.53-3.53-1.59-4.61-1.06-1.08-2.54-1.61-4.44-1.61h-7.13l-.57-4.55h7.7c3.53,0,6.25.89,8.17,2.68,1.92,1.79,2.88,4.32,2.88,7.61s-.96,6.06-2.88,7.94c-1.92,1.88-4.65,2.82-8.17,2.82h-7.23ZM266.55,66.58l-7.61-15.98h5.26l8.09,15.98h-5.74Z"/>
    <path d="M277.51,66.58v-33.97h4.79v33.97h-4.79ZM277.51,37.15v-4.55h22.49v4.55h-22.49ZM277.51,51.84v-4.55h18.18v4.55h-18.18ZM277.51,66.58v-4.55h22.49v4.55h-22.49Z"/>
  </g>
  <g>
    <path class="c" d="M204.39,66.94c-10.56,0-15.84-5.84-15.84-17.51,0-5.54,1.33-9.82,4-12.86,2.66-3.04,6.42-4.56,11.27-4.56,2.34,0,4.39.37,6.12,1.11,1.74.74,3.01,1.8,3.8,3.17l-3.54,3.52c-.72-1.08-1.63-1.92-2.74-2.51-1.11-.59-2.31-.88-3.6-.88-3.08,0-5.55,1.11-7.41,3.33-1.86,2.22-2.79,5.37-2.79,9.45,0,8.9,3.84,13.35,11.53,13.35,2.31,0,4.59-.48,6.84-1.44l1.1,4.21c-2.78,1.08-5.69,1.63-8.76,1.63Z"/>
    <path class="c" d="M229.56,66.94c-8.36,0-12.54-5.74-12.54-17.23s4.18-17.7,12.54-17.7,12.54,5.9,12.54,17.7-4.18,17.23-12.54,17.23ZM229.56,62.54c5.01,0,7.51-4.27,7.51-12.82s-2.5-13.3-7.51-13.3-7.51,4.43-7.51,13.3,2.5,12.82,7.51,12.82Z"/>
    <path class="c" d="M247.26,66.46v-33.97h4.79v33.97h-4.79ZM251.71,53.54v-4.55h7.23c1.9,0,3.38-.5,4.44-1.51,1.06-1.01,1.59-2.42,1.59-4.24,0-1.99-.53-3.53-1.59-4.61-1.06-1.08-2.54-1.61-4.44-1.61h-7.13l-.57-4.55h7.7c3.53,0,6.25.89,8.17,2.68,1.92,1.79,2.88,4.32,2.88,7.61s-.96,6.06-2.88,7.94c-1.92,1.88-4.65,2.82-8.17,2.82h-7.23ZM265.49,66.46l-7.61-15.98h5.26l8.09,15.98h-5.74Z"/>
    <path class="c" d="M276.45,66.46v-33.97h4.79v33.97h-4.79ZM276.45,37.04v-4.55h22.49v4.55h-22.49ZM276.45,51.73v-4.55h18.18v4.55h-18.18ZM276.45,66.46v-4.55h22.49v4.55h-22.49Z"/>
  </g>
</svg>