<?xml version="1.0" encoding="UTF-8"?>
<svg id="a" data-name="Capa 1" xmlns="http://www.w3.org/2000/svg" viewBox="0 0 155.28 45">
  <defs>
    <style>
      .b {
        fill: #fbb03b;
      }
    </style>
  </defs>
  <g>
    <path class="b" d="M7.17,4.89h14.73c1.44,0,2.66.5,3.67,1.51,1.01,1.01,1.51,2.22,1.51,3.64v19.91h-5.47v-8.08H7.42v8.08H2.02V10.04c0-1.44.5-2.66,1.5-3.66,1-1,2.22-1.5,3.66-1.5ZM7.42,16.45h14.2v-6.13H7.42v6.13Z"/>
    <path d="M50.17,4.89h5.61v1.85l-8.98,10.69,8.98,10.65v1.88h-5.61l-6.96-8.22-6.89,8.22h-5.61v-1.85l8.95-10.69-8.95-10.69v-1.85h5.61l6.96,8.25c.67-.86,1.83-2.26,3.48-4.2,1.65-1.94,2.79-3.29,3.41-4.06Z"/>
    <path class="b" d="M59.36,29.96V4.89h5.43v25.07h-5.43Z"/>
    <path d="M72.07,4.89h14.76c1.42,0,2.63.5,3.64,1.51,1.01,1.01,1.51,2.22,1.51,3.64v14.76c0,1.42-.5,2.63-1.51,3.64s-2.22,1.51-3.64,1.51h-14.76c-1.44,0-2.66-.5-3.66-1.5s-1.5-2.22-1.5-3.66v-14.76c0-1.44.5-2.66,1.5-3.66s2.22-1.5,3.66-1.5ZM72.31,10.32v14.2h14.2v-14.2h-14.2Z"/>
    <path class="b" d="M109.88,15.02l8.46-10.13h5.61v25.07h-5.43V13.14l-8.63,10.3-8.67-10.27v16.78h-5.4V4.89h5.57l8.5,10.13Z"/>
    <path d="M133.34,4.89h14.73c1.44,0,2.66.5,3.67,1.51,1.01,1.01,1.51,2.22,1.51,3.64v19.91h-5.47v-8.08h-14.21v8.08h-5.4V10.04c0-1.44.5-2.66,1.5-3.66,1-1,2.22-1.5,3.66-1.5ZM133.59,16.45h14.21v-6.13h-14.21v6.13Z"/>
  </g>
  <g>
    <path class="b" d="M104.65,34.27c-5.41,0-8.11-2.99-8.11-8.97,0-2.83.68-5.03,2.05-6.58,1.36-1.56,3.29-2.33,5.77-2.33,1.2,0,2.25.19,3.14.57.89.38,1.54.92,1.95,1.62l-1.81,1.8c-.37-.56-.83-.98-1.4-1.29s-1.18-.45-1.84-.45c-1.58,0-2.84.57-3.79,1.7-.95,1.14-1.43,2.75-1.43,4.84,0,4.56,1.97,6.84,5.91,6.84,1.18,0,2.35-.25,3.5-.74l.56,2.16c-1.42.56-2.92.83-4.48.83Z"/>
    <path class="b" d="M117.53,34.27c-4.28,0-6.42-2.94-6.42-8.82s2.14-9.06,6.42-9.06,6.42,3.02,6.42,9.06-2.14,8.82-6.42,8.82ZM117.53,32.02c2.56,0,3.85-2.19,3.85-6.57s-1.28-6.81-3.85-6.81-3.85,2.27-3.85,6.81,1.28,6.57,3.85,6.57Z"/>
    <path class="b" d="M126.6,34.03v-17.39h2.45v17.39h-2.45ZM128.88,27.41v-2.33h3.7c.97,0,1.73-.26,2.27-.77.54-.51.81-1.24.81-2.17,0-1.02-.27-1.81-.81-2.36-.54-.55-1.3-.83-2.27-.83h-3.65l-.29-2.33h3.95c1.8,0,3.2.46,4.18,1.37.98.92,1.48,2.21,1.48,3.9s-.49,3.1-1.48,4.07c-.98.96-2.38,1.45-4.18,1.45h-3.7ZM135.93,34.03l-3.9-8.18h2.69l4.14,8.18h-2.94Z"/>
    <path class="b" d="M141.54,34.03v-17.39h2.45v17.39h-2.45ZM141.54,18.96v-2.33h11.51v2.33h-11.51ZM141.54,26.48v-2.33h9.31v2.33h-9.31ZM141.54,34.03v-2.33h11.51v2.33h-11.51Z"/>
  </g>
  <g>
    <path d="M105.19,34.33c-5.41,0-8.11-2.99-8.11-8.97,0-2.83.68-5.03,2.05-6.58,1.36-1.56,3.29-2.33,5.77-2.33,1.2,0,2.25.19,3.14.57.89.38,1.54.92,1.95,1.62l-1.81,1.8c-.37-.56-.83-.98-1.4-1.29s-1.18-.45-1.84-.45c-1.58,0-2.84.57-3.79,1.7-.95,1.14-1.43,2.75-1.43,4.84,0,4.56,1.97,6.84,5.91,6.84,1.18,0,2.35-.25,3.5-.74l.56,2.16c-1.42.56-2.92.83-4.48.83Z"/>
    <path d="M118.08,34.33c-4.28,0-6.42-2.94-6.42-8.82s2.14-9.06,6.42-9.06,6.42,3.02,6.42,9.06-2.14,8.82-6.42,8.82ZM118.08,32.08c2.56,0,3.85-2.19,3.85-6.57s-1.28-6.81-3.85-6.81-3.85,2.27-3.85,6.81,1.28,6.57,3.85,6.57Z"/>
    <path class="b" d="M127.14,34.09v-17.39h2.45v17.39h-2.45ZM129.42,27.47v-2.33h3.7c.97,0,1.73-.26,2.27-.77.54-.51.81-1.24.81-2.17,0-1.02-.27-1.81-.81-2.36-.54-.55-1.3-.83-2.27-.83h-3.65l-.29-2.33h3.95c1.8,0,3.2.46,4.18,1.37.98.92,1.48,2.21,1.48,3.9s-.49,3.1-1.48,4.07c-.98.96-2.38,1.45-4.18,1.45h-3.7ZM136.47,34.09l-3.9-8.18h2.69l4.14,8.18h-2.94Z"/>
    <path class="b" d="M142.08,34.09v-17.39h2.45v17.39h-2.45ZM142.08,19.02v-2.33h11.51v2.33h-11.51ZM142.08,26.54v-2.33h9.31v2.33h-9.31ZM142.08,34.09v-2.33h11.51v2.33h-11.51Z"/>
  </g>
</svg>